<svg id="premium-user" enable-background="new 0 0 508.543 508.543" height="512" viewBox="0 0 508.543 508.543" width="512" xmlns="http://www.w3.org/2000/svg">
  <g fill="#f6852a">
    <path d="m268.435 508.543 83.336-45.457 83.337 45.457 21.527-21.526-24.114-83.691 44.25-52.878v-30.448h-79.042l-28.875-65h-31.52l-31.208 65h-79.355v30.448l44.25 52.878-24.113 83.691z"/>
    <path d="m237.778 410.347-41.007-49.002v-71.345h90.48l31.208-65h26.283c-10.593-10.836-22.595-19.961-35.613-27.175-24.669 25.761-59.384 41.828-97.783 41.828-38.673 0-73.608-16.298-98.308-42.381-16.67 9.074-31.719 21.25-44.29 36.136l-.434.514c-23.566 27.906-36.544 63.392-36.544 99.917v84.051h203.834z"/>
    <circle cx="211.347" cy="104.826" r="104.826"/>
  </g>
</svg>
